<svg width="28" height="28" viewBox="0 0 28 28" fill="none" xmlns="http://www.w3.org/2000/svg">
<path d="M27.4458 22.2645L24.3417 20.1949L21.5822 18.3557C21.0497 18.0013 20.334 18.1175 19.9409 18.6221L18.2334 20.8172C17.8666 21.2935 17.2068 21.4304 16.6808 21.1392C15.5222 20.4947 14.1521 19.8879 11.1292 16.8611C8.10618 13.8342 7.49549 12.468 6.85101 11.3094C6.5598 10.7834 6.69668 10.1236 7.173 9.75691L9.36808 8.04942C9.87267 7.65633 9.98888 6.94064 9.63457 6.40805L7.85177 3.73358L5.72571 0.544464C5.36385 0.00164174 4.63947 -0.161325 4.08002 0.174179L1.62808 1.64515C0.965439 2.03556 0.478343 2.66599 0.267689 3.40574C-0.402827 5.8504 -0.538013 11.2432 8.1047 19.886C16.7474 28.5287 22.1398 28.393 24.5844 27.7225C25.3242 27.5119 25.9546 27.0248 26.345 26.3621L27.816 23.9102C28.1515 23.3507 27.9886 22.6264 27.4458 22.2645Z" fill="#55A630"/>
</svg>
